<svg xmlns="http://www.w3.org/2000/svg" width="197.947" height="70" viewBox="0 0 197.947 70"><path d="M538.227,41.984a1.287,1.287,0,0,1,1.6,1.633c-.994,3.885-2.387,7.652-3.645,11.459a39.36,39.36,0,0,0-2.284,10.61,15.076,15.076,0,0,0,2.561,8.654c2.208,3.435,5.169,6.381,6.9,10.123a17.5,17.5,0,0,1,1.528,10.816c-.849,5.04-3.648,9.421-5.332,14.182-.349.8-.3,2-1.254,2.366a1.278,1.278,0,0,1-1.681-1.506c1.45-5.459,4.9-10.228,5.809-15.852a15.252,15.252,0,0,0-1.683-9.488c-2.015-3.931-5.372-6.973-7.4-10.9a17.184,17.184,0,0,1-1.916-10.068c.761-7.085,3.963-13.564,5.734-20.4C537.326,42.979,537.5,42.177,538.227,41.984Z" transform="translate(-425.97 -41.915)" fill="#ff7698"/><path d="M32.419,102.2a5.964,5.964,0,0,1,6.53-1.977,8.741,8.741,0,0,1,4.236,3.347c-.635.483-1.271.96-1.912,1.437a7.9,7.9,0,0,0-2.631-2.393,3.652,3.652,0,0,0-3.879.481,2.911,2.911,0,0,0-.87,2.738,4.8,4.8,0,0,0,1.88,2.8c2.059,1.641,4.339,3.055,6.059,5.08a6.649,6.649,0,0,1,1.7,4.969,6.488,6.488,0,0,1-6,5.629,6.737,6.737,0,0,1-5.272-1.866,13.036,13.036,0,0,1-2.324-3.24q.99-.6,1.992-1.187a8.835,8.835,0,0,0,2.813,3.4,4.282,4.282,0,0,0,5.6-1.191,3.8,3.8,0,0,0-.038-4.377c-1.969-2.74-5.127-4.242-7.413-6.665A5.633,5.633,0,0,1,32.419,102.2Z" transform="translate(-29.94 -87.757)" fill="#ff7698"/><path d="M102.618,100c.75,0,1.5,0,2.248,0q-.006,4.882,0,9.762a8.236,8.236,0,0,1,5.585-3.418,6.224,6.224,0,0,1,5.639,2.124c1.309,1.548,1.481,3.671,1.546,5.612.044,3.223.011,6.448.019,9.671-.752.006-1.5,0-2.257,0-.013-3.152.019-6.305-.017-9.457a7.3,7.3,0,0,0-1.021-4.324,4.181,4.181,0,0,0-3.685-1.553,5.956,5.956,0,0,0-5.112,3.479,9.87,9.87,0,0,0-.666,3.9c-.063,2.654-.017,5.307-.032,7.959H102.62Q102.614,111.875,102.618,100Z" transform="translate(-87.348 -87.792)" fill="#ff7698"/><path d="M458.94,102.786a1.294,1.294,0,0,1,1.941.96c-.5,3.143-2.25,6.009-2.42,9.228-.126,1.964,1.17,3.565,2.3,5.022a8.985,8.985,0,0,1,2.227,6.354c-.151,2.225-1.3,4.181-2.118,6.2-.286.641-.328,1.538-1.067,1.843a1.28,1.28,0,0,1-1.773-1.343c.557-2.532,2.38-4.7,2.42-7.358,0-2.03-1.338-3.662-2.519-5.179a8.622,8.622,0,0,1-2.049-5.324c.027-3.17,1.5-6.053,2.3-9.06C458.343,103.645,458.446,103.051,458.94,102.786Z" transform="translate(-366.392 -89.851)" fill="#ff7698"/><g transform="translate(31.525 18.5)"><path d="M186.9,130.173a8.634,8.634,0,0,1,6.5,1.084,9.734,9.734,0,0,1,2.317,2.24c-.011-1.034,0-2.067,0-3.1q1.087-.009,2.179,0,0,8.516,0,17.029h-2.179c0-.971,0-1.943,0-2.914a9.151,9.151,0,0,1-4.479,3,8.855,8.855,0,0,1-7.041-.966,8.97,8.97,0,0,1,2.7-16.374Zm.752,2.046a6.76,6.76,0,0,0-5.061,4.5,6.852,6.852,0,0,0,11.661,6.671,7.031,7.031,0,0,0-.532-9.495A6.843,6.843,0,0,0,187.653,132.219Z" transform="translate(-179.982 -129.966)" fill="#ff7698"/></g><g transform="translate(51.672 18.498)"><path d="M282.188,130.379a8.864,8.864,0,0,1,7.585,1.025,9,9,0,0,1,3.807,5.477,9.219,9.219,0,0,1-1.187,6.858,8.99,8.99,0,0,1-5.049,3.784,8.856,8.856,0,0,1-6.742-.853,10.316,10.316,0,0,1-2.523-2.183q.006,4.611,0,9.219c-.735,0-1.469,0-2.2,0q0-11.658,0-23.318,1.1-.006,2.2,0c0,1.03,0,2.059,0,3.089A8.569,8.569,0,0,1,282.188,130.379Zm1.17,1.82a6.687,6.687,0,0,0-5.211,4.874,7.236,7.236,0,0,0,.813,5.583,6.846,6.846,0,0,0,12.264-1.79,6.844,6.844,0,0,0-2.173-7.257A6.924,6.924,0,0,0,283.358,132.2Z" transform="translate(-275.872 -129.956)" fill="#ff7698"/></g><g transform="translate(70.146 18.498)"><path d="M369.12,130.618a9.725,9.725,0,0,1,5.652-.433,8.583,8.583,0,0,1,6.141,5.421,11.28,11.28,0,0,1,.624,3.618c-5.156,0-10.314,0-15.472,0a6.686,6.686,0,0,0,2.257,4.963c2.45,2.158,6.377,1.912,8.887-.015a10.247,10.247,0,0,0,1.885-2.238c.635.319,1.265.643,1.891.979A8.871,8.871,0,0,1,375.8,147.4a10.8,10.8,0,0,1-6.551-.153,8.461,8.461,0,0,1-4.534-4.309,9.3,9.3,0,0,1-.292-7.36A8.9,8.9,0,0,1,369.12,130.618Zm-.546,2.824A7.121,7.121,0,0,0,366.3,137.1q6.4.016,12.8,0a8.192,8.192,0,0,0-1.051-2.414A6.837,6.837,0,0,0,368.574,133.442Z" transform="translate(-363.8 -129.958)" fill="#ff7698"/></g><path d="M894.985,192.617c.746,0,1.494,0,2.244,0q0,2.178,0,4.358c1.181,0,2.364,0,3.549,0,0,.532-.011,1.061-.021,1.593a4.855,4.855,0,0,1,3.876-2.023,7.237,7.237,0,0,1,5.057,2.317c-.479.5-.958,1-1.443,1.485a5.212,5.212,0,0,0-3.82-1.7,2.414,2.414,0,0,0-2.185,3.158c.727,1.6,2.536,2.181,3.942,3.026,1.33.763,2.746,1.7,3.252,3.229a5,5,0,0,1-2.21,5.891,6.459,6.459,0,0,1-7.969-1.7q.706-.8,1.42-1.6a5.11,5.11,0,0,0,3.757,1.908,3.054,3.054,0,0,0,3.116-3.04,2.98,2.98,0,0,0-1.637-2.33c-1.614-1.036-3.532-1.681-4.82-3.164a4.8,4.8,0,0,1-.532-5.129c-1.112.021-2.221.008-3.33.015-.006,5.108,0,10.215-.006,15.323l-2.242,0q0-7.661,0-15.323-.933,0-1.859,0-.009-.968,0-1.931.93,0,1.861,0C894.985,195.525,894.978,194.071,894.985,192.617Z" transform="translate(-711.758 -160.953)" fill="#ff7698"/><g transform="translate(121.035 35.578)"><path d="M611.2,212a9.889,9.889,0,0,1,6.028-.5,8.673,8.673,0,0,1,5.9,4.866,10.558,10.558,0,0,1,.849,4.141c-5.223.006-10.446,0-15.67.006a6.724,6.724,0,0,0,10.829,5.5,9.34,9.34,0,0,0,2.366-2.8q.955.488,1.906.99a9.08,9.08,0,0,1-5.29,4.748,10.792,10.792,0,0,1-6.45-.1,8.332,8.332,0,0,1-4.4-3.8,9.43,9.43,0,0,1-.607-8.171A9.061,9.061,0,0,1,611.2,212Zm-.229,2.7a7.2,7.2,0,0,0-2.427,3.87q6.476.013,12.957,0a7.635,7.635,0,0,0-1.334-2.853A6.888,6.888,0,0,0,610.97,214.7Z" transform="translate(-606.006 -211.25)" fill="#ff7698"/></g><path d="M693.912,214.824a9.784,9.784,0,0,1,8.15-3.557c2.954.1,6.083,1.374,7.629,4.017q-.892.555-1.788,1.1a7.573,7.573,0,0,0-3.729-2.656,8.558,8.558,0,0,0-5.948.353,6.885,6.885,0,0,0-3.914,5.3,7,7,0,0,0,3.477,7,7.946,7.946,0,0,0,10.117-2.057q.9.574,1.786,1.168a9,9,0,0,1-5.732,3.677,11.218,11.218,0,0,1-6.938-.731,8.851,8.851,0,0,1-3.109-13.609Z" transform="translate(-552.866 -175.677)" fill="#ff7698"/><path d="M779.213,213.524a6.432,6.432,0,0,1,4.419-2.215,5.013,5.013,0,0,1,2.368.555c-.384.624-.769,1.248-1.16,1.868a3,3,0,0,0-2.309-.04c-1.887.826-2.691,2.986-2.874,4.9-.292,3.454-.137,6.927-.179,10.392-.767,0-1.532,0-2.3,0,0-3.259-.006-6.517,0-9.776A8.5,8.5,0,0,1,779.213,213.524Z" transform="translate(-620.18 -175.71)" fill="#ff7698"/><g transform="translate(163.469 35.577)"><path d="M811.969,212.67a9.384,9.384,0,0,1,7.274-1.164,8.66,8.66,0,0,1,5.654,4.427,10.425,10.425,0,0,1,1.059,4.572c-5.225,0-10.449-.006-15.674,0a6.723,6.723,0,0,0,10.835,5.5,9.363,9.363,0,0,0,2.359-2.794q.955.495,1.908.992a9,9,0,0,1-5.845,4.906,10.177,10.177,0,0,1-7.32-.927,9.373,9.373,0,0,1-.25-15.512Zm.981,2.023a7.185,7.185,0,0,0-2.435,3.879q6.48.006,12.959,0a7.627,7.627,0,0,0-1.334-2.851A6.89,6.89,0,0,0,812.95,214.693Z" transform="translate(-807.973 -211.246)" fill="#ff7698"/></g></svg>